<svg width="144" height="59" viewBox="0 0 144 59" fill="none" xmlns="http://www.w3.org/2000/svg">
<g clip-path="url(#clip0_579_20828)">
<g clip-path="url(#clip1_579_20828)">
<mask id="mask0_579_20828" style="mask-type:luminance" maskUnits="userSpaceOnUse" x="0" y="-1" width="144" height="60">
<path d="M143.582 -0.0507812H0.119553V58.9492H143.582V-0.0507812Z" fill="white"/>
</mask>
<g mask="url(#mask0_579_20828)">
<path d="M44.8817 37.0005H56.6675L44.3337 0.980469H29.9278L17.4446 37.0005H29.2304L31.3126 29.5205H42.7895L44.8817 37.0005ZM33.4944 21.7505L35.2578 15.6905L36.9514 8.95047H37.1606L38.8543 15.6905L40.5878 21.7505H33.4844H33.4944Z" fill="#001F6B"/>
<path d="M125.619 1.58922C125.619 1.58922 122.262 -0.0507812 115.367 -0.0507812C108.473 -0.0507812 94.416 3.06922 94.416 18.4792C94.416 33.8892 107.138 37.4692 116.413 37.4692C120.996 37.4692 124.394 36.3392 126.237 35.5692L124.503 28.3092C123.078 28.9792 120.558 29.5892 117.26 29.5892C113.345 29.5892 105.743 28.3292 105.743 18.4792C105.743 8.62922 113.474 7.82922 116.234 7.82922C118.994 7.82922 121.753 8.35922 123.636 9.38922L125.589 1.58922H125.599H125.619Z" fill="#001F6B"/>
<path d="M88.3885 1.89922C88.3885 1.89922 84.2242 -0.0507812 76.8717 -0.0507812C70.0971 -0.0507812 56.1793 2.82922 56.1793 18.5992C56.1793 34.3692 69.0112 37.3992 77.0909 37.3992C82.929 37.3992 87.1432 36.5792 89.7036 35.6192V14.3792L80.3288 22.2992V29.5592C79.4321 29.7792 78.2266 29.8792 76.5629 29.8792C74.0623 29.8792 67.0187 28.6392 67.0187 18.6092C67.0187 8.57922 74.0025 7.88922 77.6388 7.88922C80.7273 7.88922 84.274 8.58922 86.4259 9.68922L88.3786 1.91922H88.3885V1.89922Z" fill="#001F6B"/>
<path d="M73.2553 22.2906H80.3188L89.6936 14.3906H73.2553V22.2906Z" fill="#E40046"/>
</g>
<path d="M3.44708 47.5156H5.69863L9.59403 57.4856H7.39228L6.5355 55.1956H2.51059L1.64384 57.4856H-0.418427L3.44708 47.5156ZM4.54297 49.5156H4.51308L3.07846 53.6256H5.97759L4.54297 49.5156Z" fill="#465A64"/>
<path d="M17.9427 49.4359C17.1756 49.0759 16.1793 48.9059 15.3823 48.9059C13.061 48.9059 11.7858 50.4759 11.7858 52.5159C11.7858 54.5559 13.0411 56.0759 15.1532 56.0759C15.6912 56.0759 16.1196 56.0159 16.4583 55.9359V53.3359H14.3562V51.7659H18.3711V57.1359C17.3151 57.4259 16.2192 57.6459 15.1532 57.6459C11.9352 57.6459 9.70361 56.0359 9.70361 52.6659C9.70361 49.2959 11.7858 47.3359 15.1532 47.3359C16.3088 47.3359 17.2154 47.4959 18.0722 47.7459L17.9427 49.4359Z" fill="#465A64"/>
<path d="M27.3873 57.3359C26.66 57.5059 25.8829 57.6459 25.1258 57.6459C21.9079 57.6459 19.6762 56.0359 19.6762 52.6659C19.6762 49.2959 21.7584 47.3359 25.1258 47.3359C25.7833 47.3359 26.6501 47.4659 27.3773 47.7459L27.2379 49.4359C26.4807 49.0059 25.8032 48.9059 25.0859 48.9059C23.0336 48.9059 21.7584 50.4759 21.7584 52.5159C21.7584 54.5559 23.0137 56.0759 25.1258 56.0759C25.9128 56.0759 26.8294 55.9059 27.2976 55.6659L27.3873 57.3359Z" fill="#465A64"/>
<path d="M40.0299 57.3359C39.3026 57.5059 38.5255 57.6459 37.7684 57.6459C34.5504 57.6459 32.3188 56.0359 32.3188 52.6659C32.3188 49.2959 34.401 47.3359 37.7684 47.3359C38.4259 47.3359 39.2927 47.4659 40.0199 47.7459L39.8805 49.4359C39.1233 49.0059 38.4458 48.9059 37.7285 48.9059C35.6762 48.9059 34.401 50.4759 34.401 52.5159C34.401 54.5559 35.6563 56.0759 37.7684 56.0759C38.5554 56.0759 39.472 55.9059 39.9402 55.6659L40.0299 57.3359Z" fill="#465A64"/>
<path d="M46.9041 57.067C46.2067 57.457 45.4097 57.647 44.3836 57.647C41.9627 57.647 40.5579 56.247 40.5579 53.837C40.5579 51.707 41.6837 49.957 43.9552 49.957C46.675 49.957 47.4421 51.827 47.4421 54.397H42.3811C42.4707 55.587 43.2877 56.257 44.4732 56.257C45.3998 56.257 46.1968 55.917 46.9041 55.517V57.077V57.067ZM45.6289 53.087C45.5691 52.157 45.1407 51.357 44.0747 51.357C43.0087 51.357 42.4707 52.097 42.3811 53.087H45.6289Z" fill="#465A64"/>
<path d="M48.6575 50.127H50.3512V51.797H50.3811C50.4608 51.107 51.2478 49.957 52.3836 49.957C52.5729 49.957 52.7721 49.957 52.9614 50.017V51.947C52.792 51.847 52.4533 51.787 52.1046 51.787C50.5504 51.787 50.5504 53.727 50.5504 54.787V57.487H48.6476V50.127H48.6575Z" fill="#465A64"/>
<path d="M53.9278 50.517C54.665 50.177 55.6613 49.957 56.4782 49.957C58.7099 49.957 59.6364 50.887 59.6364 53.057V53.997C59.6364 54.737 59.6463 55.297 59.6663 55.837C59.6762 56.397 59.7061 56.907 59.7559 57.477H58.0722C58.0025 57.087 58.0025 56.607 57.9925 56.377H57.9627C57.5243 57.187 56.5679 57.647 55.7011 57.647C54.406 57.647 53.1407 56.857 53.1407 55.467C53.1407 54.367 53.6688 53.727 54.396 53.367C55.1233 53.007 56.0598 52.937 56.8568 52.937H57.9128C57.9128 51.747 57.3848 51.357 56.259 51.357C55.4521 51.357 54.6351 51.667 53.9975 52.157L53.9377 50.517H53.9278ZM56.1594 56.257C56.7372 56.257 57.1955 55.997 57.4944 55.597C57.8033 55.187 57.8929 54.657 57.8929 54.087H57.066C56.2092 54.087 54.944 54.227 54.944 55.357C54.944 55.987 55.472 56.257 56.1494 56.257H56.1594Z" fill="#465A64"/>
<path d="M61.1606 50.127H62.944V51.157H62.9738C63.5716 50.257 64.4384 49.957 65.1557 49.957C66.1818 49.957 66.9091 50.337 67.3176 51.257C67.7559 50.377 68.7123 49.957 69.609 49.957C71.4122 49.957 71.9303 51.197 71.9303 52.837V57.477H70.0274V53.097C70.0274 52.407 70.0274 51.437 68.9315 51.437C67.6662 51.437 67.5068 52.947 67.5068 53.907V57.477H65.604V53.097C65.604 52.407 65.604 51.437 64.5081 51.437C63.2428 51.437 63.0834 52.947 63.0834 53.907V57.477H61.1806V50.117L61.1606 50.127Z" fill="#465A64"/>
<path d="M73.5243 46.957H75.4272V48.787H73.5243V46.957ZM73.5243 50.127H75.4272V57.487H73.5243V50.127Z" fill="#465A64"/>
<path d="M81.863 51.7087C81.5243 51.5487 81.1557 51.4388 80.5679 51.4388C79.3823 51.4388 78.6351 52.3787 78.6351 53.7687C78.6351 55.1587 79.2727 56.1688 80.6177 56.1688C81.1557 56.1688 81.7534 55.9688 82.0822 55.8288L82.1719 57.4188C81.614 57.5888 81.0461 57.6587 80.269 57.6587C77.868 57.6587 76.6526 56.0188 76.6526 53.7788C76.6526 51.6488 77.9078 49.9688 80.1993 49.9688C80.9664 49.9688 81.5243 50.0487 82.0523 50.2087L81.8829 51.7188L81.863 51.7087Z" fill="#465A64"/>
<path d="M87.5617 51.6688C86.9838 51.4688 86.5554 51.3587 85.858 51.3587C85.35 51.3587 84.7323 51.5488 84.7323 52.1688C84.7323 53.3388 88.0498 52.5988 88.0498 55.2588C88.0498 56.9688 86.5255 57.6587 84.9813 57.6587C84.2541 57.6587 83.5168 57.5288 82.8194 57.3488L82.929 55.7788C83.5268 56.0788 84.1544 56.2687 84.802 56.2687C85.2902 56.2687 86.0573 56.0787 86.0573 55.3687C86.0573 53.9287 82.7397 54.9088 82.7397 52.2588C82.7397 50.6688 84.1246 49.9688 85.6189 49.9688C86.5156 49.9688 87.1034 50.1088 87.6912 50.2388L87.5617 51.6787V51.6688Z" fill="#465A64"/>
<path d="M100.025 57.3359C99.2977 57.5059 98.5206 57.6459 97.7634 57.6459C94.5455 57.6459 92.3138 56.0359 92.3138 52.6659C92.3138 49.2959 94.396 47.3359 97.7634 47.3359C98.4209 47.3359 99.2877 47.4659 100.015 47.7459L99.8755 49.4359C99.1183 49.0059 98.4409 48.9059 97.7236 48.9059C95.6713 48.9059 94.396 50.4759 94.396 52.5159C94.396 54.5559 95.6513 56.0759 97.7634 56.0759C98.5505 56.0759 99.467 55.9059 99.9353 55.6659L100.025 57.3359Z" fill="#465A64"/>
<path d="M104.349 49.957C106.521 49.957 108.194 51.427 108.194 53.857C108.194 55.967 106.79 57.657 104.349 57.657C101.908 57.657 100.523 55.977 100.523 53.857C100.523 51.427 102.187 49.957 104.349 49.957ZM104.349 56.167C105.813 56.167 106.202 54.857 106.202 53.627C106.202 52.497 105.604 51.447 104.349 51.447C103.093 51.447 102.516 52.527 102.516 53.627C102.516 54.837 102.904 56.167 104.349 56.167Z" fill="#465A64"/>
<path d="M109.26 55.4883H111.253V57.4883H109.26V55.4883Z" fill="#465A64"/>
<path d="M113.215 55.4883H115.278L113.983 59.0583H112.299L113.205 55.4883H113.215Z" fill="#465A64"/>
<path d="M121.046 47.5156H123.039V55.9156H126.894V57.4856H121.046V47.5156Z" fill="#465A64"/>
<path d="M128.02 51.5269H126.615V50.1269H128.02V48.6569L129.923 48.0469V50.1269H131.616V51.5269H129.923V54.9569C129.923 55.5869 130.092 56.1669 130.819 56.1669C131.158 56.1669 131.487 56.0969 131.686 55.9669L131.746 57.4769C131.347 57.5869 130.909 57.6469 130.341 57.6469C128.847 57.6469 128.02 56.7169 128.02 55.2669V51.5269Z" fill="#465A64"/>
<path d="M137.464 56.6573H137.435C136.867 57.3673 136.08 57.6573 135.183 57.6573C132.932 57.6573 132.115 55.7973 132.115 53.7873C132.115 51.7773 132.941 49.9573 135.183 49.9573C136.139 49.9573 136.807 50.2873 137.375 50.9873H137.405V46.7773H139.308V57.4873H137.455V56.6573H137.464ZM135.721 56.1673C136.986 56.1673 137.395 54.8273 137.395 53.7773C137.395 52.7273 136.907 51.4373 135.691 51.4373C134.476 51.4373 134.117 52.7973 134.117 53.7773C134.117 54.7573 134.476 56.1673 135.721 56.1673Z" fill="#465A64"/>
<path d="M141.27 55.4883H143.263V57.4883H141.27V55.4883Z" fill="#465A64"/>
</g>
</g>
<defs>
<clipPath id="clip0_579_20828">
<rect width="144" height="58.9998" fill="white"/>
</clipPath>
<clipPath id="clip1_579_20828">
<rect width="144" height="59.11" fill="white" transform="translate(-0.418427 -0.0507812)"/>
</clipPath>
</defs>
</svg>
